<svg preserveAspectRatio="none" width="100%" height="100%" overflow="visible" style="display: block;" viewBox="0 0 20 20" fill="none" xmlns="http://www.w3.org/2000/svg">
<g id="Group">
<path id="Vector" d="M17.5556 0H2.44444C1.08889 0 0 1.02222 0 2.28889V13.7778C0 15.0444 1.08889 16.0667 2.44444 16.0667H4.04444V19.4667C4.04444 19.6667 4.17778 19.8667 4.37778 19.9556C4.46667 20 4.53333 20 4.62222 20C4.75556 20 4.88889 19.9556 5 19.8889L10.0444 16.0667H17.5556C18.9111 16.0667 20 15.0444 20 13.7778V2.28889C20 1.02222 18.9111 0 17.5556 0ZM9.37778 10C8.91111 10.8 8.17778 11.2 7.2 11.2H4.4V4.73333H7.2C7.6 4.73333 7.93333 4.77778 8.2 4.86667C8.64444 5.02222 9.02222 5.28889 9.31111 5.68889C9.53333 6.02222 9.68889 6.35556 9.77778 6.73333C9.86667 7.11111 9.91111 7.46667 9.91111 7.8C9.91111 8.68889 9.73333 9.42222 9.37778 10ZM15.8667 11.2222H10.9556V4.73333H15.7111V5.88889H12.2889V7.26667H15.4444V8.4H12.2889V10.0667H15.8889V11.2222H15.8667Z" fill="var(--fill-0, #EDB843)"/>
<path id="Vector_2" d="M6.97708 5.86664H5.73264V10.1111H6.97708C7.62153 10.1111 8.06597 9.79998 8.31042 9.15553C8.44375 8.79998 8.51042 8.39998 8.51042 7.91109C8.51042 7.24442 8.39931 6.73331 8.19931 6.39998C7.99931 6.04442 7.59931 5.86664 6.97708 5.86664Z" fill="var(--fill-0, #EDB843)"/>
</g>
</svg>
