<svg preserveAspectRatio="none" width="100%" height="100%" overflow="visible" style="display: block;" viewBox="0 0 20 20" fill="none" xmlns="http://www.w3.org/2000/svg">
<path id="Vector" opacity="0.3" fill-rule="evenodd" clip-rule="evenodd" d="M10.3013 8.95439C10.3013 9.12066 10.166 9.25571 9.99954 9.25571C9.83303 9.25571 9.69778 9.12066 9.69778 8.95439C9.69778 8.78811 9.83303 8.65306 9.99954 8.65306C10.166 8.65306 10.3013 8.78811 10.3013 8.95439ZM20 5.88241V8.19541H19.9995C19.9995 8.90906 19.7541 9.5649 19.3458 10.0887C19.311 10.1333 19.2754 10.1768 19.2386 10.2191C19.2339 10.2247 19.2288 10.2295 19.224 10.2351C19.1594 10.3084 19.0917 10.3778 19.0216 10.4441C18.9942 10.47 18.9664 10.4952 18.9377 10.5202C18.9011 10.5524 18.8643 10.5836 18.8268 10.6136C18.7763 10.6539 18.7247 10.6927 18.6716 10.7295C18.6487 10.7454 18.6256 10.7616 18.6022 10.7771C18.535 10.8215 18.466 10.8636 18.3954 10.9027C18.3803 10.911 18.3646 10.9187 18.3493 10.9272C18.1886 11.0121 18.0202 11.084 17.8444 11.14C17.8331 11.1434 17.8222 11.1474 17.8108 11.1508C17.7249 11.1772 17.6374 11.1994 17.5485 11.2184C17.5334 11.2216 17.5186 11.2246 17.5035 11.2274C17.4146 11.245 17.3245 11.2591 17.2328 11.2688C17.2203 11.2699 17.2076 11.2706 17.1948 11.272C17.099 11.281 17.0017 11.2868 16.9037 11.2868H15.9837V10.8227C15.9837 10.2769 15.539 9.83292 14.9925 9.83292C14.4459 9.83292 14.0011 10.2769 14.0011 10.8227V11.2868H5.99847V10.8227C5.99847 10.2769 5.55383 9.83292 5.00729 9.83292C4.46076 9.83292 4.01612 10.2769 4.01612 10.8227V11.2868H3.09581C2.99738 11.2868 2.90058 11.281 2.80424 11.272C2.79174 11.2709 2.779 11.2699 2.76649 11.2688C2.67502 11.2591 2.5847 11.245 2.49577 11.2274C2.48072 11.2244 2.4659 11.2214 2.45085 11.2184C2.36192 11.1996 2.27438 11.1772 2.18846 11.1508C2.17712 11.1474 2.16623 11.1437 2.15511 11.14C1.97911 11.0838 1.81029 11.0121 1.64957 10.9268C1.63452 10.9187 1.61923 10.9113 1.60441 10.9029C1.53331 10.8639 1.46453 10.8215 1.39714 10.7771C1.37398 10.7619 1.35083 10.7461 1.32836 10.73C1.27487 10.6927 1.22253 10.6534 1.17135 10.6127C1.13453 10.5831 1.0984 10.5524 1.06274 10.5209C1.03379 10.4957 1.00577 10.47 0.977976 10.4437C0.908501 10.378 0.841111 10.3091 0.777194 10.2362C0.771404 10.2311 0.765846 10.2254 0.760751 10.2193C0.724161 10.177 0.688497 10.1335 0.65376 10.0889C0.245478 9.56513 0 8.90906 0 8.19564V5.88241C0 5.4532 0.349923 5.10401 0.77951 5.10401H4.01635H5.99893H14.0011H15.9837H19.2203C19.6503 5.10401 20 5.4532 20 5.88241ZM10.9907 8.95439C10.9907 8.40863 10.5461 7.96439 9.99954 7.96439C9.453 7.96439 9.00813 8.4084 9.00813 8.95439C9.00813 9.50015 9.45277 9.94438 9.99954 9.94438C10.5461 9.94438 10.9907 9.50015 10.9907 8.95439ZM15.2935 12.4396V11.9755V11.2868V10.8227C15.2935 10.6564 15.1583 10.5214 14.9918 10.5214C14.8253 10.5214 14.69 10.6564 14.69 10.8227V11.2868V11.9755V12.4396C14.69 12.6059 14.8253 12.7409 14.9918 12.7409C15.1583 12.7409 15.2935 12.6059 15.2935 12.4396ZM5.30905 12.4396V11.9755V11.2868V10.8227C5.30905 10.6564 5.1738 10.5214 5.00753 10.5214C4.84102 10.5214 4.70577 10.6564 4.70577 10.8227V11.2868V11.9755V12.4396C4.70577 12.6059 4.84125 12.7409 5.00753 12.7409C5.17357 12.7409 5.30905 12.6059 5.30905 12.4396ZM19.2791 11.1351C19.1955 11.2031 19.1091 11.2672 19.0204 11.3273C19.0107 11.3338 19.0003 11.3393 18.9905 11.3458C18.903 11.4041 18.8129 11.4586 18.7212 11.5093C18.6966 11.5229 18.6707 11.5347 18.6457 11.5477C18.5674 11.5886 18.488 11.6277 18.4069 11.6628C18.3754 11.6769 18.3428 11.689 18.3106 11.7019C18.2342 11.7324 18.1575 11.7611 18.0792 11.7866C18.0422 11.7986 18.0054 11.8099 17.9679 11.8208C17.8917 11.843 17.815 11.8626 17.737 11.8802C17.6976 11.889 17.6585 11.8982 17.6189 11.9059C17.5376 11.9214 17.4554 11.9332 17.3727 11.9436C17.3361 11.948 17.3004 11.954 17.2634 11.9575C17.1441 11.9688 17.0242 11.9757 16.9028 11.9757H15.9827V12.4398C15.9827 12.9858 15.5381 13.4298 14.9915 13.4298C14.445 13.4298 14.0001 12.9858 14.0001 12.4398V11.9757H5.99847V12.4398C5.99847 12.9858 5.55383 13.4298 5.00729 13.4298C4.46076 13.4298 4.01612 12.9858 4.01612 12.4398V11.9757H3.09557C2.97399 11.9757 2.85403 11.9688 2.73477 11.9575C2.69818 11.954 2.66251 11.948 2.62639 11.9436C2.54348 11.9332 2.4608 11.9211 2.37929 11.9056C2.34015 11.8982 2.30148 11.8892 2.26257 11.8804C2.18406 11.8629 2.10648 11.8432 2.0296 11.8205C1.99324 11.8097 1.95688 11.7988 1.92075 11.787C1.84132 11.7611 1.76351 11.7322 1.68639 11.7012C1.65513 11.6885 1.62386 11.6765 1.59306 11.6633C1.51039 11.6275 1.42933 11.5879 1.34944 11.546C1.32605 11.5338 1.30173 11.5229 1.27857 11.5102C1.18316 11.4577 1.0896 11.4011 0.999051 11.3405C0.992566 11.3361 0.985387 11.3326 0.978903 11.328C0.889743 11.2674 0.803131 11.2033 0.719298 11.1351V18.8428C0.719298 19.4808 1.23897 20 1.87814 20H18.1212C18.7603 20 19.28 19.4808 19.28 18.8428H19.2793L19.2791 11.1351ZM5.52882 4.30387C5.60941 3.40984 6.10685 2.64925 6.79442 2.09169C7.6925 1.36347 8.85204 1.01844 9.99977 1.01844C11.1475 1.01844 12.307 1.36347 13.2051 2.09169C13.8922 2.64878 14.3899 3.40961 14.4707 4.30387L14.4879 4.49327H15.5082L15.4915 4.26964C15.4019 3.07637 14.7662 2.0503 13.8464 1.30473C12.7663 0.428976 11.3826 0 9.99977 0C8.61675 0 7.23351 0.429207 6.15317 1.30497C5.23355 2.05053 4.59762 3.0766 4.50846 4.26987L4.49179 4.4935H5.51215L5.52882 4.30387Z" fill="var(--fill-0, black)"/>
</svg>
